<mxfile host="app.diagrams.net" agent="Mozilla/5.0 (Windows NT 10.0; Win64; x64) AppleWebKit/537.36 (KHTML, like Gecko) Chrome/136.0.0.0 Safari/537.36" version="24.7.16">
  <diagram name="사이트 구조도" id="xW1EYCMI22myMGag8ivd">
    <mxGraphModel dx="1434" dy="738" grid="1" gridSize="10" guides="1" tooltips="1" connect="1" arrows="1" fold="1" page="1" pageScale="1" pageWidth="827" pageHeight="1169" math="0" shadow="0">
      <root>
        <mxCell id="0" />
        <mxCell id="1" parent="0" />
        <mxCell id="4JN9tGl0HPpNQjGBfXnn-1" value="index.html&#xa;(이름 궁합 계산)" style="rounded=1;whiteSpace=wrap;html=1;fillColor=#e0f2fe;strokeColor=#0284c7;" vertex="1" parent="1">
          <mxGeometry x="320" y="80" width="160" height="60" as="geometry" />
        </mxCell>
        <mxCell id="4JN9tGl0HPpNQjGBfXnn-2" value="script.js&#xa;(공통 계산 로직)" style="rounded=1;whiteSpace=wrap;html=1;fillColor=#ede9fe;strokeColor=#7c3aed;" vertex="1" parent="1">
          <mxGeometry x="320" y="160" width="160" height="50" as="geometry" />
        </mxCell>
        <mxCell id="4JN9tGl0HPpNQjGBfXnn-3" value="match.html&#xa;(100점/90점 궁합 찾기)" style="rounded=1;whiteSpace=wrap;html=1;fillColor=#dcfce7;strokeColor=#16a34a;" vertex="1" parent="1">
          <mxGeometry x="100" y="260" width="180" height="60" as="geometry" />
        </mxCell>
        <mxCell id="4JN9tGl0HPpNQjGBfXnn-4" value="why.html&#xa;(왜 점수가 안 나오는가?)" style="rounded=1;whiteSpace=wrap;html=1;fillColor=#fef9c3;strokeColor=#ca8a04;" vertex="1" parent="1">
          <mxGeometry x="500" y="260" width="180" height="60" as="geometry" />
        </mxCell>
        <mxCell id="4JN9tGl0HPpNQjGBfXnn-5" value="surnames.json" style="ellipse;whiteSpace=wrap;html=1;fillColor=#f0f9ff;strokeColor=#0284c7;" vertex="1" parent="1">
          <mxGeometry x="30" y="360" width="100" height="40" as="geometry" />
        </mxCell>
        <mxCell id="4JN9tGl0HPpNQjGBfXnn-6" value="names.json" style="ellipse;whiteSpace=wrap;html=1;fillColor=#f0f9ff;strokeColor=#0284c7;" vertex="1" parent="1">
          <mxGeometry x="160" y="360" width="100" height="40" as="geometry" />
        </mxCell>
        <mxCell id="4JN9tGl0HPpNQjGBfXnn-7" value="students.json" style="ellipse;whiteSpace=wrap;html=1;fillColor=#f0f9ff;strokeColor=#0284c7;" vertex="1" parent="1">
          <mxGeometry x="290" y="360" width="100" height="40" as="geometry" />
        </mxCell>
        <mxCell id="4JN9tGl0HPpNQjGBfXnn-8" value="gsa.webp&#xa;(로고 이미지)" style="ellipse;whiteSpace=wrap;html=1;fillColor=#fef2f2;strokeColor=#ef4444;" vertex="1" parent="1">
          <mxGeometry x="420" y="360" width="100" height="40" as="geometry" />
        </mxCell>
        <mxCell id="4JN9tGl0HPpNQjGBfXnn-9" style="endArrow=block;html=1;" edge="1" parent="1" source="4JN9tGl0HPpNQjGBfXnn-1" target="4JN9tGl0HPpNQjGBfXnn-2">
          <mxGeometry relative="1" as="geometry" />
        </mxCell>
        <mxCell id="4JN9tGl0HPpNQjGBfXnn-10" style="endArrow=block;html=1;" edge="1" parent="1" source="4JN9tGl0HPpNQjGBfXnn-2" target="4JN9tGl0HPpNQjGBfXnn-3">
          <mxGeometry relative="1" as="geometry" />
        </mxCell>
        <mxCell id="4JN9tGl0HPpNQjGBfXnn-11" style="endArrow=block;html=1;" edge="1" parent="1" source="4JN9tGl0HPpNQjGBfXnn-2" target="4JN9tGl0HPpNQjGBfXnn-4">
          <mxGeometry relative="1" as="geometry" />
        </mxCell>
        <mxCell id="4JN9tGl0HPpNQjGBfXnn-12" style="endArrow=block;html=1;" edge="1" parent="1" source="4JN9tGl0HPpNQjGBfXnn-3" target="4JN9tGl0HPpNQjGBfXnn-5">
          <mxGeometry relative="1" as="geometry" />
        </mxCell>
        <mxCell id="4JN9tGl0HPpNQjGBfXnn-13" style="endArrow=block;html=1;" edge="1" parent="1" source="4JN9tGl0HPpNQjGBfXnn-3" target="4JN9tGl0HPpNQjGBfXnn-6">
          <mxGeometry relative="1" as="geometry" />
        </mxCell>
        <mxCell id="4JN9tGl0HPpNQjGBfXnn-14" style="endArrow=block;html=1;" edge="1" parent="1" source="4JN9tGl0HPpNQjGBfXnn-3" target="4JN9tGl0HPpNQjGBfXnn-7">
          <mxGeometry relative="1" as="geometry" />
        </mxCell>
        <mxCell id="4JN9tGl0HPpNQjGBfXnn-15" style="endArrow=block;html=1;" edge="1" parent="1" source="4JN9tGl0HPpNQjGBfXnn-1" target="4JN9tGl0HPpNQjGBfXnn-8">
          <mxGeometry relative="1" as="geometry" />
        </mxCell>
      </root>
    </mxGraphModel>
  </diagram>
</mxfile>
